<svg width="180" height="38" viewBox="0 0 180 38" fill="none" xmlns="http://www.w3.org/2000/svg">
  <path d="M0 2.5H8.25C14.5 2.5 19 6.75 19 13.25C19 19.75 14.5 24 8.25 24H0V2.5ZM7.75 19.5C11 19.5 13.25 17.25 13.25 13.25C13.25 9.25 11 7 7.75 7H5.75V19.5H7.75Z" fill="black"/>
  <path d="M26.3301 9.25V11.25C27.3301 9.75 29.0801 8.75 31.3301 8.75V14.5C31.0801 14.5 30.5801 14.5 30.3301 14.5C27.8301 14.5 26.3301 16 26.3301 19V24H21.0801V9.25H26.3301Z" fill="black"/>
  <path d="M42.8652 24.5C37.1152 24.5 33.1152 20.5 33.1152 16.75C33.1152 13 37.1152 9 42.6152 9C48.1152 9 52.1152 13 52.1152 16.75C52.1152 20.5 48.1152 24.5 42.8652 24.5ZM42.6152 19.75C44.8652 19.75 46.6152 18.5 46.6152 16.75C46.6152 15 44.8652 13.75 42.6152 13.75C40.3652 13.75 38.6152 15 38.6152 16.75C38.6152 18.5 40.3652 19.75 42.6152 19.75Z" fill="black"/>
  <path d="M60.8516 9.25V11.5C61.8516 10 63.8516 8.75 66.3516 8.75C70.1016 8.75 73.1016 11.5 73.1016 16.25V24H67.8516V17.25C67.8516 15.25 66.8516 14 64.8516 14C62.8516 14 60.8516 15.25 60.8516 17.25V24H55.6016V9.25H60.8516Z" fill="black"/>
  <path d="M75.6152 2.5H81.1152V24H75.6152V2.5Z" fill="black"/>
  <path d="M95.1328 24L91.1328 18.25L89.3828 20.25V24H84.1328V2.5H89.3828V15L94.8828 9.25H101.383L94.6328 15.75L101.633 24H95.1328Z" fill="black"/>
  <path d="M111.633 9.25V11.25C112.633 9.75 114.383 8.75 116.633 8.75V14.5C116.383 14.5 115.883 14.5 115.633 14.5C113.133 14.5 111.633 16 111.633 19V24H106.383V9.25H111.633Z" fill="black"/>
  <path d="M134.42 16.75C134.42 20.75 131.42 24.5 125.67 24.5C119.92 24.5 116.92 20.75 116.92 16.75C116.92 12.75 119.92 9 125.67 9C131.42 9 134.42 12.75 134.42 16.75ZM122.17 16.75C122.17 18.5 123.67 19.75 125.67 19.75C127.67 19.75 129.17 18.5 129.17 16.75C129.17 15 127.67 13.75 125.67 13.75C123.67 13.75 122.17 15 122.17 16.75Z" fill="black"/>
  <path d="M149.23 18.75H142.23L141.23 21.25H135.73L143.73 2.5H147.73L155.73 21.25H150.23L149.23 18.75ZM147.73 14.75L145.73 9.75L143.73 14.75H147.73Z" fill="black"/>
</svg> 