<svg width="16" height="16" viewBox="0 0 16 16" fill="none" xmlns="http://www.w3.org/2000/svg">
  <path d="M14 10.8V12.8C14.0001 12.9499 13.9712 13.0983 13.9154 13.2365C13.8596 13.3746 13.778 13.4993 13.6758 13.6028C13.5736 13.7063 13.4531 13.7863 13.3215 13.8374C13.1899 13.8885 13.0499 13.9095 12.91 13.899C10.8554 13.6892 8.8822 13.0064 7.15 11.9C5.53213 10.887 4.15127 9.50614 3.14 7.889C2.02996 6.14617 1.34718 4.16066 1.14 2.09C1.12957 1.95048 1.15065 1.81089 1.20143 1.67982C1.25221 1.54875 1.33178 1.42893 1.43465 1.32721C1.53752 1.22549 1.66162 1.14429 1.79909 1.08873C1.93655 1.03317 2.08424 1.00434 2.234 1.005H4.234C4.51108 1.00188 4.77937 1.10969 4.98583 1.30336C5.19229 1.49703 5.32228 1.76096 5.35 2.046C5.40359 2.65148 5.50906 3.25088 5.664 3.836C5.73186 4.07399 5.73085 4.32695 5.6611 4.56433C5.59134 4.80171 5.45578 5.01446 5.272 5.179L4.294 6.157C5.23371 7.80201 6.57479 9.14309 8.22 10.083L9.198 9.106C9.36254 8.92222 9.57529 8.78666 9.81267 8.7169C10.05 8.64715 10.303 8.64614 10.541 8.714C11.1261 8.86894 11.7255 8.97441 12.331 9.028C12.6187 9.056 12.8858 9.18712 13.0814 9.39582C13.2771 9.60452 13.3856 9.87584 13.38 10.154L14 10.8Z" stroke="black" stroke-width="1.5" stroke-linecap="round" stroke-linejoin="round"/>
</svg> 